<svg xmlns="http://www.w3.org/2000/svg" width="1000" height="1000" fill="none" viewBox="0 0 1000 1000">
  <path fill="#FF9951" fill-rule="evenodd" d="M675.96 295.257C666.243 273.791 644.862 260 621.299 260H297.811C275.752 260 255.472 272.104 245.001 291.519L172.611 425.747C170.866 428.983 167.486 431 163.809 431H79C51.3858 431 29 453.386 29 481V651C29 678.614 51.3858 701 79 701H124.037C139.169 701 150 686.132 150 671V671C150 614.667 195.667 569 252 569C308.333 569 354 614.667 354 671V671C354 686.132 364.831 701 379.963 701H651.037C666.169 701 677 686.132 677 671V671C677 614.667 722.667 569 779 569C835.333 569 881 614.667 881 671V671C881 686.132 891.831 701 906.963 701H922C949.614 701 972 678.614 972 651V513.261C972 488.861 954.388 468.025 930.329 463.96L742.836 432.284C739.555 431.729 736.764 429.579 735.392 426.547L675.96 295.257ZM279.248 335.296C283.947 324.205 294.825 317 306.87 317H383C399.569 317 413 330.431 413 347V405C413 421.569 399.569 435 383 435H252.098C244.936 435 240.096 427.693 242.89 421.099L279.248 335.296ZM478 317C461.431 317 448 330.431 448 347V405C448 421.569 461.431 435 478 435H668.902C676.064 435 680.904 427.693 678.11 421.099L641.752 335.296C637.053 324.205 626.175 317 614.13 317H478Z" clip-rule="evenodd"/>
  <path fill="#000" d="M675.96 295.257L685.07 291.133L685.07 291.133L675.96 295.257ZM245.001 291.519L253.803 296.266L253.803 296.266L245.001 291.519ZM172.611 425.747L181.413 430.494L181.413 430.494L172.611 425.747ZM930.329 463.96L928.663 473.82L928.663 473.82L930.329 463.96ZM742.836 432.284L744.502 422.423L744.502 422.423L742.836 432.284ZM735.392 426.547L726.282 430.671L726.282 430.671L735.392 426.547ZM279.248 335.296L288.455 339.197L288.455 339.197L279.248 335.296ZM242.89 421.099L233.683 417.197L233.683 417.197L242.89 421.099ZM678.11 421.099L687.317 417.197L687.317 417.197L678.11 421.099ZM641.752 335.296L632.545 339.197L632.545 339.197L641.752 335.296ZM621.299 270C640.935 270 658.752 281.493 666.85 299.381L685.07 291.133C673.734 266.09 648.789 250 621.299 250V270ZM297.811 270H621.299V250H297.811V270ZM253.803 296.266C262.529 280.087 279.429 270 297.811 270V250C272.076 250 248.416 264.121 236.2 286.772L253.803 296.266ZM181.413 430.494L253.803 296.266L236.2 286.772L163.809 421L181.413 430.494ZM163.809 441C171.162 441 177.922 436.965 181.413 430.494L163.809 421L163.809 421V441ZM79 441H163.809V421H79V441ZM39 481C39 458.909 56.9086 441 79 441V421C45.8629 421 19 447.863 19 481H39ZM39 651V481H19V651H39ZM79 691C56.9086 691 39 673.091 39 651H19C19 684.137 45.8629 711 79 711V691ZM124.037 691H79V711H124.037V691ZM252 559C190.144 559 140 609.144 140 671H160C160 620.19 201.19 579 252 579V559ZM364 671C364 609.144 313.856 559 252 559V579C302.81 579 344 620.19 344 671H364ZM651.037 691H379.963V711H651.037V691ZM687 671C687 620.19 728.19 579 779 579V559C717.144 559 667 609.144 667 671H687ZM779 579C829.81 579 871 620.19 871 671H891C891 609.144 840.856 559 779 559V579ZM922 691H906.963V711H922V691ZM962 651C962 673.091 944.091 691 922 691V711C955.137 711 982 684.137 982 651H962ZM962 513.261V651H982V513.261H962ZM928.663 473.82C947.911 477.072 962 493.741 962 513.261H982C982 483.981 960.866 458.977 931.995 454.1L928.663 473.82ZM741.17 442.144L928.663 473.82L931.995 454.1L744.502 422.423L741.17 442.144ZM726.282 430.671C729.026 436.735 734.607 441.035 741.17 442.144L744.502 422.423L744.502 422.423L726.282 430.671ZM666.85 299.381L726.282 430.671L744.502 422.423L685.07 291.133L666.85 299.381ZM306.87 307C290.81 307 276.306 316.606 270.04 331.394L288.455 339.197C291.588 331.803 298.84 327 306.87 327V307ZM383 307H306.87V327H383V307ZM423 347C423 324.909 405.091 307 383 307V327C394.046 327 403 335.954 403 347H423ZM423 405V347H403V405H423ZM383 445C405.091 445 423 427.091 423 405H403C403 416.046 394.046 425 383 425V445ZM252.098 445H383V425H252.098V445ZM233.683 417.197C228.095 430.385 237.775 445 252.098 445V425C252.076 425 252.064 424.999 252.061 424.998C252.057 424.998 252.059 424.998 252.065 424.999C252.07 425.001 252.077 425.003 252.085 425.006C252.093 425.009 252.1 425.013 252.105 425.016C252.116 425.022 252.119 425.025 252.116 425.022C252.115 425.021 252.112 425.018 252.109 425.014C252.105 425.01 252.102 425.005 252.098 425C252.094 424.995 252.091 424.989 252.089 424.985C252.087 424.98 252.085 424.976 252.084 424.974C252.083 424.97 252.085 424.974 252.086 424.987C252.087 424.994 252.087 425.001 252.087 425.009C252.087 425.018 252.086 425.025 252.086 425.031C252.085 425.037 252.084 425.038 252.085 425.035C252.086 425.032 252.089 425.02 252.098 425L233.683 417.197ZM270.04 331.394L233.683 417.197L252.098 425L288.455 339.197L270.04 331.394ZM458 347C458 335.954 466.954 327 478 327V307C455.909 307 438 324.909 438 347H458ZM458 405V347H438V405H458ZM478 425C466.954 425 458 416.046 458 405H438C438 427.091 455.909 445 478 445V425ZM668.902 425H478V445H668.902V425ZM668.902 425C668.911 425.02 668.914 425.032 668.915 425.035C668.916 425.038 668.915 425.037 668.914 425.031C668.914 425.025 668.913 425.018 668.913 425.009C668.913 425.001 668.913 424.994 668.914 424.987C668.915 424.974 668.917 424.97 668.916 424.974C668.915 424.976 668.913 424.98 668.911 424.985C668.909 424.989 668.906 424.995 668.902 425C668.898 425.005 668.895 425.01 668.891 425.014C668.888 425.018 668.885 425.021 668.884 425.022C668.881 425.025 668.884 425.022 668.895 425.016C668.9 425.013 668.907 425.009 668.915 425.006C668.923 425.003 668.93 425.001 668.935 424.999C668.941 424.998 668.943 424.998 668.939 424.998C668.936 424.999 668.924 425 668.902 425V445C683.225 445 692.905 430.385 687.317 417.197L668.902 425ZM632.545 339.197L668.902 425L687.317 417.197L650.96 331.394L632.545 339.197ZM614.13 327C622.16 327 629.412 331.803 632.545 339.197L650.96 331.394C644.694 316.606 630.19 307 614.13 307V327ZM478 327H614.13V307H478V327ZM871 671C871 689.707 884.544 711 906.963 711V691C899.118 691 891 682.556 891 671H871ZM344 671C344 689.707 357.544 711 379.963 711V691C372.118 691 364 682.556 364 671H344ZM651.037 711C673.456 711 687 689.707 687 671H667C667 682.556 658.882 691 651.037 691V711ZM124.037 711C146.456 711 160 689.707 160 671H140C140 682.556 131.882 691 124.037 691V711Z"/>
  <circle cx="252" cy="671" r="69" fill="#49B06C" stroke="#000" stroke-linecap="round" stroke-width="20"/>
  <circle cx="779" cy="671" r="69" fill="#49B06C" stroke="#000" stroke-linecap="round" stroke-width="20"/>
</svg>
